<svg xmlns="http://www.w3.org/2000/svg" width="24" height="24" viewBox="0 0 24 24">
  <path id="icon--beer" d="M16.713 9.87c-.103-3.382-.495-6.58-1.192-8.399-.954-.98-4.054-1.471-7.154-1.471-3.097 0-6.193.49-7.148 1.471-.821 2.144-1.219 6.204-1.219 10.223 0 4.314.459 8.581 1.346 10.374 1.147 1.287 4.087 1.932 7.027 1.932 2.938 0 5.875-.644 7.022-1.932.29-.587.535-1.439.732-2.471.318-1.658.207-2.896 2.874-2.896v-3.6c-2.418 0-2.224-1.1-2.288-3.231zm-13.284 10.758c-.596-2.462-1.506-9.642-.293-15.547.67.141 1.364.247 1.981.3-.846 5.634-.743 10.673.366 15.869-1.087-.137-2.054-.622-2.054-.622zm8.83-17.16c-.6.121-.847.532-.838 1.058.017.942.727 2.161.794 2.813.1.977-.506 1.661-1.46 1.661-.93 0-1.475-.733-1.401-1.66.055-.689.883-1.782.765-2.819-.104-.92-.778-.849-1.39-.849-2.909 0-5.729-.443-5.729-.879s2.82-.79 5.729-.79 5.268.354 5.268.79c0 .233-.683.463-1.738.675zm11.741 14.532h-1.776l-.37-1.484c-.144-.43-.546-.72-1-.72h-.854v-1.78h1.07c1.024 0 1.935.65 2.267 1.618l.663 2.366zm-2.559-5h-.935l-.498-3.653c-.079-.576.369-1.09.952-1.09.579 0 1.027.509.953 1.083l-.472 3.66z"/>
  <path id="icon--food" d="M23 19c.37 1.981-.544 3.99-3 4-4.611.019-11.389 0-16 0-2.492 0-3.348-1.976-3-4h22zm-.465-1c-.007 0-21.142-.002-21.17-.006-.764-.068-1.365-.711-1.365-1.494s.601-1.426 1.365-1.494c.028-.004 2.116-.006 2.116-.006 2.37.017 2.852 2.006 4.019 2 1.167-.006 1.781-1.976 3.965-2h11.07c.812.019 1.465.684 1.465 1.5s-.653 1.481-1.465 1.5zm-2.07-7h2.07c.812.019 1.465.684 1.465 1.5s-.653 1.481-1.465 1.5c-.007 0-21.142-.002-21.17-.006-.764-.068-1.365-.711-1.365-1.494s.601-1.426 1.365-1.494c.028-.004 11.116-.006 11.116-.006 2.37.017 2.852 2.006 4.019 2 1.167-.006 1.781-1.976 3.965-2zm2.535-1h-22c0-3.989 4.377-8 11-8s11 4.011 11 8zm-11.5-4c.276 0 .5.224.5.5s-.224.5-.5.5-.5-.224-.5-.5.224-.5.5-.5zm4 0c.276 0 .5.224.5.5s-.224.5-.5.5-.5-.224-.5-.5.224-.5.5-.5zm4 0c.276 0 .5.224.5.5s-.224.5-.5.5-.5-.224-.5-.5.224-.5.5-.5zm-12 0c.276 0 .5.224.5.5s-.224.5-.5.5-.5-.224-.5-.5.224-.5.5-.5zm-2-1c.276 0 .5.224.5.5s-.224.5-.5.5-.5-.224-.5-.5.224-.5.5-.5zm3-1c.276 0 .5.224.5.5s-.224.5-.5.5-.5-.224-.5-.5.224-.5.5-.5zm6 0c.276 0 .5.224.5.5s-.224.5-.5.5-.5-.224-.5-.5.224-.5.5-.5zm3 0c.276 0 .5.224.5.5s-.224.5-.5.5-.5-.224-.5-.5.224-.5.5-.5zm-6-1c.276 0 .5.224.5.5s-.224.5-.5.5-.5-.224-.5-.5.224-.5.5-.5z"/>
  <path id="icon--other" d="M14.096 20.206c1.107-.278 2.807-2.732 2.519-5.149-.325.886-1.825 1.731-2.223 1.596.759-1.138 1.613-3.688.613-5.229-.33 1.105-1.105 1.958-1.783 1.957.831-1.397.982-5.532-3.381-6.345 1.924 2.845-2.919 6.269.841 9.729-1.026-.01-2.054-.863-2.577-1.833-.912 2.365.857 4.642 1.71 5.274-4.153-.447-6.508-5.594-5.63-9.637.354 2.153 2.214 2.773 3.001 2.808-5.013-6.063 3.27-8.654 1.391-13.342 3.144.316 6.769 3.615 5.751 7.192.96-.262 1.861-1.222 2.062-2.669 2.023 2.818 1.853 6.179.904 8.348.901-.008 2.268-1.229 2.559-2.47.993 5.943-3.205 9.77-5.757 9.77zm3.904 1.794h-12v2h12v-2z"/>
  <path id="icon--signal" d="M6.043 19.496l-1.482 1.505c-2.791-2.201-4.561-5.413-4.561-9.001s1.77-6.8 4.561-9l1.482 1.504c-2.326 1.835-3.804 4.512-3.804 7.496s1.478 5.661 3.804 7.496zm.675-7.496c0-1.791.887-3.397 2.282-4.498l-1.481-1.502c-1.86 1.467-3.04 3.608-3.04 6s1.18 4.533 3.04 6l1.481-1.502c-1.396-1.101-2.282-2.707-2.282-4.498zm15.043 0c0-2.984-1.478-5.661-3.804-7.496l1.482-1.504c2.791 2.2 4.561 5.412 4.561 9s-1.77 6.8-4.561 9.001l-1.482-1.505c2.326-1.835 3.804-4.512 3.804-7.496zm-6.761 4.498l1.481 1.502c1.86-1.467 3.04-3.608 3.04-6s-1.18-4.533-3.04-6l-1.481 1.502c1.396 1.101 2.282 2.707 2.282 4.498s-.886 3.397-2.282 4.498zm-3-7.498c-1.656 0-3 1.343-3 3s1.344 3 3 3 3-1.343 3-3-1.344-3-3-3z"/>
  <path id="icon--shot" d="M14.845 9.395c-.535-1.242-1.049-5.551-1.049-5.957 0-1.085.944-.494.058-3.002-.103-.291-.979-.436-1.854-.436-.875 0-1.751.145-1.854.435-.863 2.446.058 1.978.058 3.002 0 .405-.514 4.715-1.049 5.957s-2.155 1.668-2.155 4.294v8.895c0 1.332 1.155 1.417 5 1.417s5-.085 5-1.417v-8.895c0-2.626-1.621-3.051-2.155-4.293zm-3.845 4.689l.005 7.916c-.508.065-1.797.138-2.005-.183v-7.864c0-2.76 1.367-1.888 2.504-5.243-.284 1.752-.504 2.651-.504 5.374z"/>
</svg>
